<?xml version="1.0" encoding="UTF-8"?>
<!DOCTYPE svg PUBLIC "-//W3C//DTD SVG 1.1//EN" "http://www.w3.org/Graphics/SVG/1.1/DTD/svg11.dtd">
<!-- Creator: CorelDRAW X6 -->
<svg xmlns="http://www.w3.org/2000/svg" xml:space="preserve" width="3.93497in" height="0.701165in" version="1.1" style="shape-rendering:geometricPrecision; text-rendering:geometricPrecision; image-rendering:optimizeQuality; fill-rule:evenodd; clip-rule:evenodd"
viewBox="0 0 149471 26634"
 xmlns:xlink="http://www.w3.org/1999/xlink">
 <defs>
  <style type="text/css">
   <![CDATA[
    .fil1 {fill:yellow}
    .fil0 {fill:#4C4C4C;fill-rule:nonzero}
   ]]>
  </style>
 </defs>
 <g id="Layer_x0020_1">
  <metadata id="CorelCorpID_0Corel-Layer"/>
  <g id="_426156416">
   <path class="fil0" d="M16512 11461l-7917 0c-229,-20 -457,-33 -686,-33 -132,0 -270,7 -402,13 -1981,-186 -3525,-1795 -3525,-3742 0,-2074 1752,-3755 3913,-3755l8748 0c2029,66 3671,1615 3782,3556l3983 0c-35,-1296 -409,-2506 -1039,-3556 0,-7 0,-7 0,-7 -1337,-2227 -3809,-3749 -6663,-3815 -69,-7 -138,-7 -208,-7 -69,0 -138,0 -208,7l-8394 0c-2937,0 -5499,1535 -6857,3822 -665,1103 -1039,2386 -1039,3755 0,1369 374,2652 1039,3762 326,552 734,1063 1191,1522 1434,1416 3442,2300 5666,2300l8616 0c2161,0 3913,1682 3913,3755 0,2074 -1752,3762 -3913,3762l-8602 0c-2099,0 -3809,-1575 -3927,-3563l-3982 0c35,1296 409,2506 1039,3563 1364,2286 3934,3822 6871,3822l8602 0c2937,0 5499,-1535 6857,-3822 665,-1110 1039,-2393 1039,-3762 0,-1363 -374,-2652 -1039,-3755 -1358,-2286 -3920,-3822 -6857,-3822l0 0z"/>
   <path class="fil0" d="M27294 26623l3982 0 0 -14630 -3982 -3822 0 18452zm17932 -26501l0 17155 -17932 -17209 0 5404 3982 3822 0 0 13949 13387 3982 3822 0 -26381 -3982 0z"/>
   <path class="fil0" d="M74255 7194c0,-3769 -3082,-6853 -6961,-7046l7 -13 -15217 0 0 26488 3982 0 0 -12343 11470 0 -55 -47c3788,-286 6774,-3330 6774,-7039zm-7356 3237l-10832 0 0 -6461 10541 0c14,0 35,-7 49,-7 83,-7 159,-7 242,-7 1856,0 3373,1449 3373,3237 0,1788 -1517,3237 -3373,3237l0 0z"/>
   <path class="fil0" d="M99305 7194c0,-3769 -3082,-6853 -6961,-7046l7 -13 -15217 0 0 26488 3982 0 0 -12343 11470 0 -55 -47c3789,-286 6774,-3330 6774,-7039zm-7356 3237l-10832 0 0 -6461 10542 0c14,0 35,-7 49,-7 83,-7 159,-7 242,-7 1856,0 3373,1449 3373,3237 0,1788 -1517,3237 -3373,3237l0 0z"/>
   <path class="fil0" d="M138937 26623l0 -20758 -3982 0 0 20758 3982 0zm10535 -22666l0 -3822 -24622 0 0 3822 24622 0z"/>
   <path class="fil1" d="M107520 2044l7759 10220 -8882 10380c0,0 10594,0 11825,0 1231,0 3252,-806 4147,-4147 562,0 856,0 856,0l-1284 8119c0,0 -19642,-181 -19691,0 -49,181 0,-1137 0,-1137l9872 -11798 -9899 -12360 0 -1244c0,0 19054,-175 19156,0 101,175 562,6889 562,6889l-722 54c0,0 241,-5083 -3745,-5083 -3986,0 -9952,107 -9952,107z"/>
  </g>
 </g>
</svg>
